<svg width="29" height="32" viewBox="0 0 29 32" fill="none" xmlns="http://www.w3.org/2000/svg">
<path d="M8.16667 19.1667C7.71806 19.1667 7.34175 19.0147 7.03775 18.7107C6.73481 18.4078 6.58333 18.032 6.58333 17.5834C6.58333 17.1348 6.73481 16.7585 7.03775 16.4545C7.34175 16.1516 7.71806 16.0001 8.16667 16.0001C8.61528 16.0001 8.99158 16.1516 9.29558 16.4545C9.59853 16.7585 9.75 17.1348 9.75 17.5834C9.75 18.032 9.59853 18.4078 9.29558 18.7107C8.99158 19.0147 8.61528 19.1667 8.16667 19.1667ZM14.5 19.1667C14.0514 19.1667 13.6756 19.0147 13.3727 18.7107C13.0687 18.4078 12.9167 18.032 12.9167 17.5834C12.9167 17.1348 13.0687 16.7585 13.3727 16.4545C13.6756 16.1516 14.0514 16.0001 14.5 16.0001C14.9486 16.0001 15.3249 16.1516 15.6289 16.4545C15.9319 16.7585 16.0833 17.1348 16.0833 17.5834C16.0833 18.032 15.9319 18.4078 15.6289 18.7107C15.3249 19.0147 14.9486 19.1667 14.5 19.1667ZM20.8333 19.1667C20.3847 19.1667 20.0089 19.0147 19.706 18.7107C19.402 18.4078 19.25 18.032 19.25 17.5834C19.25 17.1348 19.402 16.7585 19.706 16.4545C20.0089 16.1516 20.3847 16.0001 20.8333 16.0001C21.2819 16.0001 21.6577 16.1516 21.9607 16.4545C22.2647 16.7585 22.4167 17.1348 22.4167 17.5834C22.4167 18.032 22.2647 18.4078 21.9607 18.7107C21.6577 19.0147 21.2819 19.1667 20.8333 19.1667ZM3.41667 31.8334C2.54583 31.8334 1.80008 31.5236 1.17942 30.904C0.559805 30.2833 0.25 29.5376 0.25 28.6667V6.50008C0.25 5.62925 0.559805 4.88403 1.17942 4.26441C1.80008 3.64375 2.54583 3.33341 3.41667 3.33341H5V0.166748H8.16667V3.33341H20.8333V0.166748H24V3.33341H25.5833C26.4542 3.33341 27.1999 3.64375 27.8206 4.26441C28.4402 4.88403 28.75 5.62925 28.75 6.50008V28.6667C28.75 29.5376 28.4402 30.2833 27.8206 30.904C27.1999 31.5236 26.4542 31.8334 25.5833 31.8334H3.41667ZM3.41667 28.6667H25.5833V12.8334H3.41667V28.6667Z" fill="#477EFF"/>
</svg>
