<svg width="61" height="60" viewBox="0 0 61 60" fill="none" xmlns="http://www.w3.org/2000/svg">
<circle cx="30.6769" cy="30" r="30" fill="#477EFF"/>
<path d="M32.5769 16.2644V41.8515H18.8269C18.4954 41.8515 18.1774 41.7018 17.943 41.4352C17.7086 41.1686 17.5769 40.807 17.5769 40.43V32.6117C18.4057 32.6117 19.2006 32.2373 19.7866 31.5709C20.3727 30.9044 20.7019 30.0005 20.7019 29.058C20.7019 28.1154 20.3727 27.2115 19.7866 26.5451C19.2006 25.8786 18.4057 25.5042 17.5769 25.5042V17.6859C17.5769 17.3089 17.7086 16.9473 17.943 16.6808C18.1774 16.4142 18.4954 16.2644 18.8269 16.2644H32.5769ZM35.0769 16.2644H41.3269C41.6584 16.2644 41.9764 16.4142 42.2108 16.6808C42.4452 16.9473 42.5769 17.3089 42.5769 17.6859V25.5042C41.7481 25.5042 40.9532 25.8786 40.3672 26.5451C39.7811 27.2115 39.4519 28.1154 39.4519 29.058C39.4519 30.0005 39.7811 30.9044 40.3672 31.5709C40.9532 32.2373 41.7481 32.6117 42.5769 32.6117V40.43C42.5769 40.807 42.4452 41.1686 42.2108 41.4352C41.9764 41.7018 41.6584 41.8515 41.3269 41.8515H35.0769V16.2644Z" fill="white"/>
</svg>
