<svg width="49" height="48" viewBox="0 0 49 48" fill="none" xmlns="http://www.w3.org/2000/svg">
<g clip-path="url(#clip0_490_2425)">
<path d="M31.8231 34.7939L37.1725 25.2538C37.7631 24.2006 37.427 22.8886 36.3598 22.2902C35.6984 21.9193 34.2124 21.5877 33.3565 23.1141L35.4963 19.2981C36.0868 18.2448 35.7508 16.9329 34.6836 16.3344C34.0386 15.9728 32.5361 15.6319 31.6802 17.1583L33.1067 14.6143C33.6973 13.5611 33.3613 12.2491 32.294 11.6507C31.2255 11.0515 29.8813 11.4213 29.2907 12.4745L27.8642 15.0185C28.7201 13.4921 27.671 12.4023 27.0261 12.0407C25.9576 11.4415 24.6252 11.8497 24.0339 12.9042L17.9855 23.6909M27.8642 15.0185L23.9413 22.0146M31.6802 17.1583L27.7573 24.1544M35.4963 19.2981L31.5734 26.2941" stroke="#192D45" stroke-width="3" stroke-linecap="round" stroke-linejoin="round"/>
<path d="M31.8232 34.794C28.9701 39.8821 23.5572 40.1907 18.6396 37.4333C13.722 34.6759 12.7435 32.4552 12.4937 23.9554L12.3534 19.5213C12.2907 18.0349 13.6395 16.9086 15.1245 17.2063C15.6107 17.3025 16.0556 17.5458 16.3988 17.9034C16.7421 18.2609 16.9671 18.7154 17.0433 19.2051L17.962 23.7329" stroke="#192D45" stroke-width="3" stroke-linecap="round" stroke-linejoin="round"/>
</g>
<defs>
<clipPath id="clip0_490_2425">
<rect width="35" height="35" fill="white" transform="translate(17.7949 0.176758) rotate(29.2806)"/>
</clipPath>
</defs>
</svg>
