<svg width="61" height="60" viewBox="0 0 61 60" fill="none" xmlns="http://www.w3.org/2000/svg">
<circle cx="30.6769" cy="30" r="30" fill="#477EFF" fill-opacity="0.2"/>
<path d="M15.6769 42C15.2519 42 14.8959 41.856 14.6089 41.568C14.3209 41.281 14.1769 40.925 14.1769 40.5V37.8C14.1769 36.95 14.3959 36.1685 14.8339 35.4555C15.2709 34.7435 15.8519 34.2 16.5769 33.825C18.1269 33.05 19.7019 32.4685 21.3019 32.0805C22.9019 31.6935 24.5269 31.5 26.1769 31.5C27.8269 31.5 29.4519 31.6935 31.0519 32.0805C32.6519 32.4685 34.2269 33.05 35.7769 33.825C36.5019 34.2 37.0829 34.7435 37.5199 35.4555C37.9579 36.1685 38.1769 36.95 38.1769 37.8V40.5C38.1769 40.925 38.0329 41.281 37.7449 41.568C37.4579 41.856 37.1019 42 36.6769 42H15.6769ZM40.4644 42C40.6894 41.825 40.8644 41.606 40.9894 41.343C41.1144 41.081 41.1769 40.7875 41.1769 40.4625V37.5C41.1769 36.4 40.8709 35.3435 40.2589 34.3305C39.6459 33.3185 38.7769 32.45 37.6519 31.725C38.9269 31.875 40.1269 32.131 41.2519 32.493C42.3769 32.856 43.4269 33.3 44.4019 33.825C45.3019 34.325 45.9894 34.881 46.4644 35.493C46.9394 36.106 47.1769 36.775 47.1769 37.5V40.5C47.1769 40.925 47.0329 41.281 46.7449 41.568C46.4579 41.856 46.1019 42 45.6769 42H40.4644ZM26.1769 30C24.5269 30 23.1144 29.4125 21.9394 28.2375C20.7644 27.0625 20.1769 25.65 20.1769 24C20.1769 22.35 20.7644 20.9375 21.9394 19.7625C23.1144 18.5875 24.5269 18 26.1769 18C27.8269 18 29.2394 18.5875 30.4144 19.7625C31.5894 20.9375 32.1769 22.35 32.1769 24C32.1769 25.65 31.5894 27.0625 30.4144 28.2375C29.2394 29.4125 27.8269 30 26.1769 30ZM41.1769 24C41.1769 25.65 40.5894 27.0625 39.4144 28.2375C38.2394 29.4125 36.8269 30 35.1769 30C34.9019 30 34.5519 29.969 34.1269 29.907C33.7019 29.844 33.3519 29.775 33.0769 29.7C33.7519 28.9 34.2704 28.0125 34.6324 27.0375C34.9954 26.0625 35.1769 25.05 35.1769 24C35.1769 22.95 34.9954 21.9375 34.6324 20.9625C34.2704 19.9875 33.7519 19.1 33.0769 18.3C33.4269 18.175 33.7769 18.0935 34.1269 18.0555C34.4769 18.0185 34.8269 18 35.1769 18C36.8269 18 38.2394 18.5875 39.4144 19.7625C40.5894 20.9375 41.1769 22.35 41.1769 24Z" fill="#477EFF"/>
</svg>
